<svg xmlns="http://www.w3.org/2000/svg" width="360" height="280" viewBox="0 0 360 280" role="img" aria-labelledby="title desc">
  <title id="title">Alex Morgan learning with a laptop</title>
  <desc id="desc">A friendly illustrated portrait next to a laptop.</desc>
  <rect width="360" height="280" fill="#e8f4ff"/>
  <circle cx="92" cy="112" r="52" fill="#ffd7b5"/>
  <path d="M40 110c5-50 95-60 104 1-25-17-57-20-104-1z" fill="#203864"/>
  <circle cx="73" cy="116" r="5" fill="#203864"/>
  <circle cx="109" cy="116" r="5" fill="#203864"/>
  <path d="M78 141c11 9 22 9 34 0" fill="none" stroke="#b55b5b" stroke-width="4" stroke-linecap="round"/>
  <path d="M39 194c12-40 92-40 106 0v31H39z" fill="#3787c9"/>
  <rect x="170" y="82" width="145" height="100" rx="8" fill="#203864"/>
  <rect x="181" y="93" width="123" height="76" fill="#ffffff"/>
  <path d="M160 193h166l18 14H142z" fill="#4f6d8a"/>
  <rect x="202" y="110" width="80" height="8" rx="4" fill="#4da3df"/>
  <rect x="202" y="128" width="62" height="7" rx="3" fill="#b7d7ee"/>
  <rect x="42" y="244" width="276" height="12" rx="6" fill="#f5b841"/>
</svg>
